<?xml version="1.0" standalone="no"?><!DOCTYPE svg PUBLIC "-//W3C//DTD SVG 1.1//EN" "http://www.w3.org/Graphics/SVG/1.1/DTD/svg11.dtd"><svg t="1529273522645" class="icon" style="" viewBox="0 0 1124 1024" version="1.1" xmlns="http://www.w3.org/2000/svg" p-id="8337" xmlns:xlink="http://www.w3.org/1999/xlink" width="64" ><defs><style type="text/css"></style></defs><path d="M566.154548 1018.827716c-278.017309 0-503.385142-225.379065-503.385142-503.390758 0-278.017309 225.373449-503.390758 503.385142-503.390758s503.390758 225.373449 503.390758 503.390758C1069.545306 793.454266 844.171857 1018.827716 566.154548 1018.827716zM566.154548 61.646217c-250.622734 0-453.79074 203.168007-453.79074 453.79074 0 250.617118 203.168007 453.79074 453.79074 453.79074s453.79074-203.168007 453.79074-453.79074C1019.945288 264.81984 816.777282 61.646217 566.154548 61.646217zM803.619125 534.149283c-0.909783 2.521559-1.156884 5.166668-2.544023 7.570293-0.673913 1.168116-1.808334 1.825182-2.572102 2.914675-0.876087 1.241124-1.988044 2.235146-2.993298 3.39203-3.156161 3.661595-6.508879 6.84022-10.507431 9.271924-0.286413 0.174094-0.432428 0.471739-0.724457 0.634602l-303.710252 175.34662c-6.885147 9.361779-17.437506 15.836962-29.944213 15.836962l-15.471926 0c-20.054536 0-36.076824-15.747107-37.346028-35.481534-1.684783-7.081705-2.139675-14.21957-0.471739-21.11595L397.333655 343.330737c-1.308515-6.289857-1.03895-12.703265 0.41558-19.122289 1.123189-19.874826 17.246564-35.762331 37.402187-35.762331l15.471926 0c12.321381 0 22.755805 6.284241 29.663416 15.41015l304.103368 175.576874c0.393116 0.230254 0.59529 0.628986 0.98279 0.864855 3.521197 2.195834 6.441488 5.043118 9.300003 8.204894 1.460145 1.589312 2.993298 3.00453 4.200726 4.762321 0.606522 0.898551 1.550001 1.42645 2.100363 2.38116 1.134421 1.96558 1.269203 4.138951 2.077899 6.18877 1.134421 2.751813 2.212682 5.380074 2.791124 8.294749 0.494203 2.633878 0.516667 5.161053 0.544747 7.806162 0.078623 3.408878-0.005616 6.688589-0.707609 10.091851C805.214053 530.167579 804.382893 532.093848 803.619125 534.149283z" p-id="8338" fill="#ffffff"></path></svg>